<svg width="174" height="40" viewBox="0 0 174 40" fill="none" xmlns="http://www.w3.org/2000/svg">
<path d="M57 21.104C57 19.76 57.264 18.568 57.792 17.528C58.336 16.488 59.072 15.688 60 15.128C60.928 14.568 61.96 14.288 63.096 14.288C63.96 14.288 64.784 14.48 65.568 14.864C66.352 15.232 66.976 15.728 67.44 16.352L66.984 19.064V21.164V23.264L67.44 25.832C67.024 26.488 66.44 27.016 65.688 27.416C64.936 27.816 64.064 28.016 63.072 28.016C61.952 28.016 60.928 27.728 60 27.152C59.072 26.576 58.336 25.768 57.792 24.728C57.264 23.672 57 22.464 57 21.104ZM66.984 19.064C66.984 19.064 66.232 18.024 65.688 17.72C65.144 17.4 64.56 17.24 63.936 17.24C63.312 17.24 62.736 17.392 62.208 17.696C61.68 18 61.248 18.448 60.912 19.04C60.592 19.616 60.432 20.304 60.432 21.104C60.432 21.904 60.592 22.608 60.912 23.216C61.248 23.808 61.68 24.264 62.208 24.584C62.752 24.904 63.328 25.064 63.936 25.064C64.56 25.064 65.144 24.912 65.688 24.608C66.232 24.288 66.664 23.84 66.984 23.264V21.164V19.064Z" fill="white"/>
<path d="M73.384 21.24L78.0504 25.368L76.5504 28.8L73.384 24.048V25.5535V28.584H70C70 24.456 70 28.584 70 24.456V18.048V15.288V12H73.384V18.024L77.0504 14.584L78.5504 18.048L73.384 21.24Z" fill="white"/>
<path d="M105.665 14.312C107.297 14.312 108.609 14.816 109.601 15.824C110.609 16.816 111.113 18.208 111.113 20V27.8H107.753V20.456C107.753 19.416 107.489 18.624 106.961 18.08C106.433 17.52 105.713 17.24 104.801 17.24C103.889 17.24 103.161 17.52 102.617 18.08C102.089 18.624 101.825 19.416 101.825 20.456V27.8H98.4651V20.456C98.4651 19.416 98.2011 18.624 97.6731 18.08C97.1451 17.52 96.4251 17.24 95.5131 17.24C94.5851 17.24 93.8491 17.52 93.3051 18.08C92.7771 18.624 92.5131 19.416 92.5131 20.456V27.8H89.1531V14.504H92.5131V16.112C92.9451 15.552 93.4971 15.112 94.1691 14.792C94.8571 14.472 95.6091 14.312 96.4251 14.312C97.4651 14.312 98.3931 14.536 99.2091 14.984C100.025 15.416 100.657 16.04 101.105 16.856C101.537 16.088 102.161 15.472 102.977 15.008C103.809 14.544 104.705 14.312 105.665 14.312Z" fill="white"/>
<path d="M120.206 28.016C118.926 28.016 117.774 27.736 116.75 27.176C115.726 26.6 114.918 25.792 114.326 24.752C113.75 23.712 113.461 22.512 113.461 21.152C113.461 19.792 113.757 18.592 114.349 17.552C114.957 16.512 115.781 15.712 116.821 15.152C117.861 14.576 119.021 14.288 120.301 14.288C121.581 14.288 122.742 14.576 123.782 15.152C124.822 15.712 125.637 16.512 126.229 17.552C126.837 18.592 127.142 19.792 127.142 21.152C127.142 22.512 126.829 23.712 126.205 24.752C125.597 25.792 124.766 26.6 123.71 27.176C122.67 27.736 121.502 28.016 120.206 28.016ZM120.206 25.088C120.814 25.088 121.382 24.944 121.91 24.656C122.454 24.352 122.885 23.904 123.205 23.312C123.525 22.72 123.686 22 123.686 21.152C123.686 19.888 123.349 18.92 122.677 18.248C122.021 17.56 121.214 17.216 120.254 17.216C119.294 17.216 118.485 17.56 117.829 18.248C117.189 18.92 116.869 19.888 116.869 21.152C116.869 22.416 117.182 23.392 117.806 24.08C118.446 24.752 119.246 25.088 120.206 25.088Z" fill="white"/>
<path d="M136.974 14.312C138.558 14.312 139.838 14.816 140.814 15.824C141.79 16.816 142.278 18.208 142.278 20V27.8H138.918V20.456C138.918 19.4 138.654 18.592 138.126 18.032C137.598 17.456 136.878 17.168 135.966 17.168C135.038 17.168 134.302 17.456 133.758 18.032C133.23 18.592 132.966 19.4 132.966 20.456V27.8H129.606V14.504H132.966V16.16C133.414 15.584 133.982 15.136 134.67 14.816C135.374 14.48 136.142 14.312 136.974 14.312Z" fill="white"/>
<path d="M157.833 20.864C157.833 21.344 157.801 21.776 157.737 22.16H148.017C148.097 23.12 148.433 23.872 149.025 24.416C149.617 24.96 150.345 25.232 151.209 25.232C152.457 25.232 153.345 24.696 153.873 23.624H157.497C157.113 24.904 156.377 25.96 155.289 26.792C154.201 27.608 152.865 28.016 151.281 28.016C150.001 28.016 148.849 27.736 147.825 27.176C146.817 26.6 146.025 25.792 145.449 24.752C144.889 23.712 144.609 22.512 144.609 21.152C144.609 19.776 144.889 18.568 145.449 17.528C146.009 16.488 146.793 15.688 147.801 15.128C148.809 14.568 149.969 14.288 151.281 14.288C152.545 14.288 153.673 14.56 154.665 15.104C155.673 15.648 156.449 16.424 156.993 17.432C157.553 18.424 157.833 19.568 157.833 20.864ZM154.353 19.904C154.337 19.04 154.025 18.352 153.417 17.84C152.809 17.312 152.065 17.048 151.185 17.048C150.353 17.048 149.649 17.304 149.073 17.816C148.513 18.312 148.169 19.008 148.041 19.904H154.353Z" fill="white"/>
<path d="M173.006 14.504L164.774 34.088H161.198L164.078 27.464L158.75 14.504H162.518L165.95 23.792L169.43 14.504H173.006Z" fill="white"/>
<path d="M34.1422 5.85781C30.3647 2.08031 25.3422 0 20 0C14.6578 0 9.63531 2.08031 5.85781 5.85781C2.08031 9.63531 0 14.6578 0 20C0 25.3422 2.08039 30.3646 5.85781 34.1422C9.63523 37.9198 14.6578 40 20 40C25.3422 40 30.3647 37.9197 34.1422 34.1422C37.9197 30.3647 40 25.3422 40 20C40 14.6578 37.9196 9.63539 34.1422 5.85781Z" fill="#33CC95"/>
<g clip-path="url(#clip0_35212_417)">
<path d="M20.5714 8V33.1429" stroke="white" stroke-width="2" stroke-linecap="round" stroke-linejoin="round"/>
<path d="M26.2857 12.5714H17.7143C16.6534 12.5714 15.636 12.9929 14.8859 13.743C14.1357 14.4931 13.7143 15.5106 13.7143 16.5714C13.7143 17.6323 14.1357 18.6497 14.8859 19.3999C15.636 20.15 16.6534 20.5714 17.7143 20.5714H23.4286C24.4894 20.5714 25.5069 20.9929 26.257 21.743C27.0072 22.4932 27.4286 23.5106 27.4286 24.5714C27.4286 25.6323 27.0072 26.6497 26.257 27.3999C25.5069 28.15 24.4894 28.5714 23.4286 28.5714H13.7143" stroke="white" stroke-width="2" stroke-linecap="round" stroke-linejoin="round"/>
</g>
<defs>
<clipPath id="clip0_35212_417">
<rect width="27.4286" height="27.4286" fill="white" transform="translate(6.85715 6.85714)"/>
</clipPath>
</defs>
</svg>
